<svg width="180" height="80" viewBox="0 0 180 80" fill="none" xmlns="http://www.w3.org/2000/svg">
<g id="Navbar Logo" clip-path="url(#clip0)">
<path id="FootballfielD" d="M13.752 73V50.5H35.3145V52.8438H16.5645V60.3438H34.377V62.6875H16.5645V73H13.752ZM36.1816 67.8672C36.1816 66.8301 36.293 65.9717 36.5156 65.292C36.7383 64.6123 37.0957 64.0732 37.5879 63.6748C38.0801 63.2764 38.7188 62.998 39.5039 62.8398C40.2891 62.6758 41.2441 62.5938 42.3691 62.5938C43.4941 62.5938 44.4492 62.6758 45.2344 62.8398C46.0195 62.998 46.6582 63.2764 47.1504 63.6748C47.6426 64.0732 48 64.6123 48.2227 65.292C48.4453 65.9717 48.5566 66.8301 48.5566 67.8672C48.5566 68.9043 48.4453 69.7656 48.2227 70.4512C48 71.1367 47.6426 71.6816 47.1504 72.0859C46.6582 72.4902 46.0195 72.7773 45.2344 72.9473C44.4492 73.1113 43.4941 73.1934 42.3691 73.1934C41.2441 73.1934 40.2891 73.1113 39.5039 72.9473C38.7188 72.7773 38.0801 72.4902 37.5879 72.0859C37.0957 71.6816 36.7383 71.1367 36.5156 70.4512C36.293 69.7656 36.1816 68.9043 36.1816 67.8672ZM37.8691 67.8672C37.8691 68.4297 37.8896 68.9189 37.9307 69.335C37.9717 69.751 38.0479 70.1084 38.1592 70.4072C38.2764 70.7061 38.4375 70.9492 38.6426 71.1367C38.8477 71.3242 39.1172 71.4736 39.4512 71.585C39.7852 71.6963 40.1895 71.7725 40.6641 71.8135C41.1445 71.8545 41.7129 71.875 42.3691 71.875C42.9316 71.875 43.4326 71.8633 43.8721 71.8398C44.3174 71.8105 44.7041 71.749 45.0322 71.6553C45.3662 71.5615 45.6504 71.4297 45.8848 71.2598C46.1191 71.084 46.3066 70.8467 46.4473 70.5479C46.5938 70.249 46.6992 69.8828 46.7637 69.4492C46.834 69.0098 46.8691 68.4824 46.8691 67.8672C46.8691 67.2637 46.834 66.751 46.7637 66.3291C46.6992 65.9014 46.5938 65.5439 46.4473 65.2568C46.3066 64.9697 46.1191 64.7441 45.8848 64.5801C45.6504 64.4102 45.3662 64.2842 45.0322 64.2021C44.7041 64.1143 44.3174 64.0586 43.8721 64.0352C43.4326 64.0117 42.9316 64 42.3691 64C41.8066 64 41.3027 64.0117 40.8574 64.0352C40.418 64.0586 40.0312 64.1143 39.6973 64.2021C39.3691 64.2842 39.0879 64.4102 38.8535 64.5801C38.6191 64.7441 38.4287 64.9697 38.2822 65.2568C38.1416 65.5439 38.0361 65.9014 37.9658 66.3291C37.9014 66.751 37.8691 67.2637 37.8691 67.8672ZM49.3301 67.8672C49.3301 66.8301 49.4414 65.9717 49.6641 65.292C49.8867 64.6123 50.2441 64.0732 50.7363 63.6748C51.2285 63.2764 51.8672 62.998 52.6523 62.8398C53.4375 62.6758 54.3926 62.5938 55.5176 62.5938C56.6426 62.5938 57.5977 62.6758 58.3828 62.8398C59.168 62.998 59.8066 63.2764 60.2988 63.6748C60.791 64.0732 61.1484 64.6123 61.3711 65.292C61.5938 65.9717 61.7051 66.8301 61.7051 67.8672C61.7051 68.9043 61.5938 69.7656 61.3711 70.4512C61.1484 71.1367 60.791 71.6816 60.2988 72.0859C59.8066 72.4902 59.168 72.7773 58.3828 72.9473C57.5977 73.1113 56.6426 73.1934 55.5176 73.1934C54.3926 73.1934 53.4375 73.1113 52.6523 72.9473C51.8672 72.7773 51.2285 72.4902 50.7363 72.0859C50.2441 71.6816 49.8867 71.1367 49.6641 70.4512C49.4414 69.7656 49.3301 68.9043 49.3301 67.8672ZM51.0176 67.8672C51.0176 68.4297 51.0381 68.9189 51.0791 69.335C51.1201 69.751 51.1963 70.1084 51.3076 70.4072C51.4248 70.7061 51.5859 70.9492 51.791 71.1367C51.9961 71.3242 52.2656 71.4736 52.5996 71.585C52.9336 71.6963 53.3379 71.7725 53.8125 71.8135C54.293 71.8545 54.8613 71.875 55.5176 71.875C56.0801 71.875 56.5811 71.8633 57.0205 71.8398C57.4658 71.8105 57.8525 71.749 58.1807 71.6553C58.5146 71.5615 58.7988 71.4297 59.0332 71.2598C59.2676 71.084 59.4551 70.8467 59.5957 70.5479C59.7422 70.249 59.8477 69.8828 59.9121 69.4492C59.9824 69.0098 60.0176 68.4824 60.0176 67.8672C60.0176 67.2637 59.9824 66.751 59.9121 66.3291C59.8477 65.9014 59.7422 65.5439 59.5957 65.2568C59.4551 64.9697 59.2676 64.7441 59.0332 64.5801C58.7988 64.4102 58.5146 64.2842 58.1807 64.2021C57.8525 64.1143 57.4658 64.0586 57.0205 64.0352C56.5811 64.0117 56.0801 64 55.5176 64C54.9551 64 54.4512 64.0117 54.0059 64.0352C53.5664 64.0586 53.1797 64.1143 52.8457 64.2021C52.5176 64.2842 52.2363 64.4102 52.002 64.5801C51.7676 64.7441 51.5771 64.9697 51.4307 65.2568C51.29 65.5439 51.1846 65.9014 51.1143 66.3291C51.0498 66.751 51.0176 67.2637 51.0176 67.8672ZM72.6035 68.5C72.6035 69.3613 72.5332 70.082 72.3926 70.6621C72.252 71.2363 72.0146 71.6963 71.6807 72.042C71.3525 72.3877 70.9189 72.6338 70.3799 72.7803C69.8408 72.9268 69.1758 73 68.3848 73C67.6172 73 66.9727 72.9414 66.4512 72.8242C65.9297 72.707 65.5078 72.5078 65.1855 72.2266C64.8633 71.9453 64.6318 71.5703 64.4912 71.1016C64.3506 70.6328 64.2803 70.0469 64.2803 69.3438V64.2637H62.1973V62.875H64.2803V60.1064H65.9678V62.875H72.3223V64.2637H65.9678V69.3438C65.9678 69.9062 66.0088 70.3398 66.0908 70.6445C66.1787 70.9492 66.3164 71.1719 66.5039 71.3125C66.6914 71.4531 66.9375 71.5352 67.2422 71.5586C67.5527 71.582 67.9307 71.5938 68.376 71.5938C68.7275 71.5938 69.041 71.5879 69.3164 71.5762C69.5977 71.5645 69.8408 71.5293 70.0459 71.4707C70.2568 71.4062 70.4355 71.3125 70.582 71.1895C70.7285 71.0605 70.8457 70.8818 70.9336 70.6533C71.0273 70.4248 71.0947 70.1377 71.1357 69.792C71.1768 69.4404 71.1973 69.0098 71.1973 68.5H72.6035ZM80.127 73.1934C79.3184 73.1934 78.6445 73.1377 78.1055 73.0264C77.5723 72.9209 77.1357 72.8066 76.7959 72.6836C76.4561 72.5547 76.1982 72.3555 76.0225 72.0859C75.8467 71.8105 75.7148 71.5967 75.627 71.4443V73H73.9395V59.5H75.627V63.833C75.7031 63.71 75.8291 63.5781 76.0049 63.4375C76.1865 63.291 76.4473 63.1562 76.7871 63.0332C77.1328 62.9043 77.5752 62.7988 78.1143 62.7168C78.6533 62.6348 79.3242 62.5938 80.127 62.5938C81.252 62.5938 82.207 62.6787 82.9922 62.8486C83.7773 63.0186 84.416 63.3086 84.9082 63.7188C85.4004 64.1289 85.7578 64.6797 85.9805 65.3711C86.2031 66.0566 86.3145 66.918 86.3145 67.9551C86.3145 68.9746 86.2031 69.8213 85.9805 70.4951C85.7578 71.1689 85.4004 71.7051 84.9082 72.1035C84.416 72.502 83.7773 72.7832 82.9922 72.9473C82.207 73.1113 81.252 73.1934 80.127 73.1934ZM80.127 71.875C80.7832 71.875 81.3486 71.8545 81.8232 71.8135C82.3037 71.7725 82.7109 71.6992 83.0449 71.5938C83.3789 71.4883 83.6484 71.3418 83.8535 71.1543C84.0645 70.9668 84.2256 70.7295 84.3369 70.4424C84.4541 70.1494 84.5303 69.8008 84.5654 69.3965C84.6064 68.9863 84.627 68.5059 84.627 67.9551C84.627 67.4043 84.6064 66.9238 84.5654 66.5137C84.5303 66.1035 84.4541 65.7549 84.3369 65.4678C84.2256 65.1748 84.0645 64.9346 83.8535 64.7471C83.6484 64.5537 83.3789 64.4043 83.0449 64.2988C82.7109 64.1875 82.3037 64.1113 81.8232 64.0703C81.3486 64.0293 80.7832 64.0088 80.127 64.0088C79.5645 64.0088 79.0635 64.0234 78.624 64.0527C78.1846 64.0762 77.7979 64.1348 77.4639 64.2285C77.1299 64.3223 76.8457 64.457 76.6113 64.6328C76.3828 64.8086 76.1953 65.043 76.0488 65.3359C75.9023 65.6289 75.7939 65.9922 75.7236 66.4258C75.6592 66.8594 75.627 67.3779 75.627 67.9814C75.627 68.5791 75.6592 69.0918 75.7236 69.5195C75.7939 69.9414 75.9023 70.2959 76.0488 70.583C76.1953 70.8701 76.3828 71.1016 76.6113 71.2773C76.8457 71.4473 77.1299 71.5762 77.4639 71.6641C77.7979 71.752 78.1846 71.8105 78.624 71.8398C79.0635 71.8633 79.5645 71.875 80.127 71.875ZM97.4502 71.6113C97.4326 71.6816 97.3008 71.8574 97.0547 72.1387C96.8789 72.3496 96.6445 72.5371 96.3516 72.7012C96.0586 72.8594 95.666 72.9824 95.1738 73.0703C94.6875 73.1641 94.0459 73.2109 93.249 73.2109C92.1885 73.2109 91.2832 73.1553 90.5332 73.0439C89.7832 72.9385 89.1709 72.7744 88.6963 72.5518C88.2217 72.3232 87.873 72.0332 87.6504 71.6816C87.4336 71.3301 87.3252 70.9111 87.3252 70.4248C87.3252 69.915 87.3838 69.4844 87.501 69.1328C87.624 68.7754 87.7998 68.4766 88.0283 68.2363C88.2627 67.9961 88.5439 67.8086 88.8721 67.6738C89.2002 67.5391 89.5723 67.4365 89.9883 67.3662C90.4102 67.2959 90.8701 67.252 91.3682 67.2344C91.8662 67.2168 92.3965 67.208 92.959 67.208C93.7617 67.208 94.4326 67.2432 94.9717 67.3135C95.5107 67.3779 95.9502 67.4629 96.29 67.5684C96.6357 67.668 96.8965 67.7764 97.0723 67.8936C97.248 68.0107 97.374 68.1191 97.4502 68.2188C97.4502 67.5625 97.4209 67.0029 97.3623 66.54C97.3096 66.0771 97.2188 65.6904 97.0898 65.3799C96.9668 65.0693 96.8057 64.8232 96.6064 64.6416C96.4072 64.4541 96.1611 64.3135 95.8682 64.2197C95.5811 64.126 95.2441 64.0674 94.8574 64.0439C94.4707 64.0146 94.0283 64 93.5303 64C92.7568 64 92.1152 64.0205 91.6055 64.0615C91.0957 64.0967 90.6914 64.1699 90.3926 64.2812C90.0938 64.3926 89.8828 64.5479 89.7598 64.7471C89.6367 64.9404 89.5752 65.1953 89.5752 65.5117H87.8877C87.8877 64.9785 87.9814 64.5273 88.1689 64.1582C88.3623 63.7891 88.6787 63.4902 89.1182 63.2617C89.5635 63.0273 90.1465 62.8574 90.8672 62.752C91.5879 62.6465 92.4756 62.5938 93.5303 62.5938C94.5615 62.5938 95.4346 62.6787 96.1494 62.8486C96.8643 63.0186 97.4414 63.3174 97.8809 63.7451C98.3262 64.1729 98.6455 64.75 98.8389 65.4766C99.0381 66.1973 99.1377 67.1113 99.1377 68.2188V73H97.4502V71.6113ZM93.5303 71.875C94.2744 71.875 94.8955 71.8398 95.3936 71.7695C95.8975 71.6992 96.3018 71.5938 96.6064 71.4531C96.9111 71.3125 97.1279 71.1367 97.2568 70.9258C97.3857 70.7148 97.4502 70.4688 97.4502 70.1875C97.4502 69.9062 97.374 69.6689 97.2217 69.4756C97.0752 69.2764 96.8262 69.1152 96.4746 68.9922C96.1289 68.8691 95.6689 68.7812 95.0947 68.7285C94.5205 68.6699 93.8115 68.6406 92.9678 68.6406C92.124 68.6406 91.4414 68.6553 90.9199 68.6846C90.4043 68.7139 90.0059 68.7812 89.7246 68.8867C89.4434 68.9922 89.2529 69.1475 89.1533 69.3525C89.0596 69.5576 89.0127 69.8359 89.0127 70.1875C89.0127 70.5391 89.0625 70.8262 89.1621 71.0488C89.2676 71.2656 89.4785 71.4355 89.7949 71.5586C90.1113 71.6816 90.5654 71.7666 91.1572 71.8135C91.7549 71.8545 92.5459 71.875 93.5303 71.875ZM101.045 59.5H102.732V73H101.045V59.5ZM105.193 59.5H106.881V73H105.193V59.5ZM112.154 64.1582V73H110.467V64.1582H108.779V62.875H110.467V62.7871C110.467 62.1016 110.543 61.5303 110.695 61.0732C110.848 60.6162 111.1 60.25 111.451 59.9746C111.803 59.6992 112.266 59.5059 112.84 59.3945C113.42 59.2773 114.132 59.2188 114.976 59.2188H116.936V60.625H114.967C114.434 60.625 113.988 60.6367 113.631 60.6602C113.273 60.6836 112.983 60.7627 112.761 60.8975C112.544 61.0322 112.389 61.2461 112.295 61.5391C112.201 61.832 112.154 62.248 112.154 62.7871V62.875H116.936V64.1582H112.154ZM117.709 62.875H119.396V73H117.709V62.875ZM119.396 61.1875H117.709V59.5H119.396V61.1875ZM127.201 73.1934C126.076 73.1934 125.121 73.1172 124.336 72.9648C123.551 72.8066 122.912 72.5371 122.42 72.1562C121.928 71.7754 121.57 71.2656 121.348 70.627C121.125 69.9883 121.014 69.1855 121.014 68.2188C121.014 67.1113 121.125 66.1973 121.348 65.4766C121.57 64.75 121.928 64.1729 122.42 63.7451C122.912 63.3174 123.551 63.0186 124.336 62.8486C125.121 62.6787 126.076 62.5938 127.201 62.5938C128.004 62.5938 128.698 62.6523 129.284 62.7695C129.876 62.8867 130.38 63.0566 130.796 63.2793C131.218 63.502 131.558 63.7715 131.815 64.0879C132.079 64.4043 132.284 64.7383 132.431 65.0898C132.583 65.4355 132.686 65.8428 132.738 66.3115C132.797 66.7803 132.826 67.2754 132.826 67.7969L132.686 68.3594H122.701C122.701 69.1328 122.777 69.7686 122.93 70.2666C123.082 70.7588 123.334 71.1191 123.686 71.3477C124.037 71.5762 124.5 71.7227 125.074 71.7871C125.648 71.8457 126.357 71.875 127.201 71.875C127.975 71.875 128.613 71.8545 129.117 71.8135C129.627 71.7666 130.031 71.6816 130.33 71.5586C130.629 71.4355 130.837 71.2656 130.954 71.0488C131.077 70.8262 131.139 70.5391 131.139 70.1875H132.826C132.826 70.7324 132.729 71.1982 132.536 71.585C132.349 71.9658 132.035 72.2764 131.596 72.5166C131.156 72.751 130.576 72.9209 129.855 73.0264C129.141 73.1377 128.256 73.1934 127.201 73.1934ZM127.201 64C126.639 64 126.135 64.0117 125.689 64.0352C125.25 64.0586 124.863 64.1113 124.529 64.1934C124.201 64.2695 123.92 64.3838 123.686 64.5361C123.451 64.6826 123.261 64.8584 123.114 65.0635C122.974 65.2627 122.868 65.5469 122.798 65.916C122.733 66.2793 122.701 66.7188 122.701 67.2344H131.139C131.139 66.5488 131.065 66.0127 130.919 65.626C130.772 65.2334 130.541 64.9111 130.225 64.6592C129.908 64.4072 129.501 64.2344 129.003 64.1406C128.505 64.0469 127.904 64 127.201 64ZM134.725 59.5H136.412V73H134.725V59.5ZM156.858 70.6562C158.099 70.6562 159.148 70.6221 160.008 70.5537C160.867 70.4854 161.575 70.3486 162.132 70.1436C162.688 69.9287 163.118 69.6211 163.421 69.2207C163.724 68.8203 163.943 68.293 164.08 67.6387C164.227 66.9746 164.31 66.1641 164.329 65.207C164.358 64.2402 164.373 63.0879 164.373 61.75C164.373 60.4121 164.358 59.2646 164.329 58.3076C164.31 57.3408 164.227 56.5303 164.08 55.876C163.943 55.2119 163.724 54.6797 163.421 54.2793C163.118 53.8789 162.688 53.5762 162.132 53.3711C161.575 53.1562 160.867 53.0146 160.008 52.9463C159.158 52.8779 158.108 52.8438 156.858 52.8438H142.811V70.6562H156.858ZM139.998 73V50.5H156.858C158.577 50.5 160.022 50.6025 161.194 50.8076C162.376 51.0029 163.348 51.3057 164.109 51.7158C164.881 52.126 165.472 52.6387 165.882 53.2539C166.302 53.8691 166.604 54.5967 166.79 55.4365C166.985 56.2666 167.098 57.209 167.127 58.2637C167.166 59.3086 167.186 60.4707 167.186 61.75C167.186 63.0293 167.166 64.1963 167.127 65.251C167.098 66.2959 166.985 67.2383 166.79 68.0781C166.604 68.9082 166.302 69.6309 165.882 70.2461C165.472 70.8613 164.881 71.374 164.109 71.7842C163.348 72.1943 162.376 72.502 161.194 72.707C160.022 72.9023 158.577 73 156.858 73H139.998Z" fill="white"/>
<path id="Subtract" fill-rule="evenodd" clip-rule="evenodd" d="M54.9517 34.5078H59.522L42.2563 46.4414L60.0298 58.8828H55.4595L39.2095 47.7109H35.147V52.4617L32.1001 51.1786V34.5078H35.147V45.1719H39.2095L54.9517 34.5078ZM72.0767 55.8359C72.0767 55.2012 72.0925 54.5717 72.1243 53.9475C72.156 53.3127 72.2248 52.7097 72.3306 52.1384C72.4469 51.5566 72.6109 51.0117 72.8225 50.5039C73.0447 49.9961 73.3409 49.5518 73.7112 49.1709C74.092 48.7795 74.5628 48.4568 75.1235 48.2029C75.6842 47.949 76.3613 47.785 77.1548 47.7109L93.4048 46.1875C93.9126 46.1452 94.3569 46.0711 94.7378 45.9653C95.1187 45.8595 95.4307 45.6585 95.6741 45.3623C95.928 45.0555 96.1184 44.6112 96.2454 44.0293C96.3723 43.4474 96.4358 42.6487 96.4358 41.6331C96.4358 40.7867 96.3723 40.0726 96.2454 39.4907C96.1184 38.9089 95.9068 38.4275 95.6106 38.0466C95.3144 37.6658 94.9124 37.3748 94.4045 37.1738C93.9073 36.9728 93.2831 36.8247 92.532 36.7295C91.7808 36.6343 90.8922 36.5814 89.866 36.5708C88.8398 36.5496 87.6496 36.5391 86.2954 36.5391C84.4334 36.5391 82.8624 36.5761 81.5823 36.6501C80.3127 36.7136 79.2601 36.8353 78.4243 37.0151C77.5991 37.195 76.9644 37.4383 76.52 37.7451C76.0757 38.0519 75.7477 38.4539 75.5361 38.9512C75.3351 39.4378 75.2135 40.025 75.1711 40.7126C75.1394 41.4003 75.1235 42.2096 75.1235 43.1406H72.0767C72.0767 41.6172 72.2142 40.3371 72.4893 39.3003C72.7749 38.2529 73.1875 37.3907 73.7271 36.7136C74.2772 36.0365 74.9543 35.5129 75.7583 35.1426C76.5623 34.7723 77.488 34.5025 78.5354 34.3333C79.5933 34.164 80.7677 34.0688 82.0583 34.0476C83.3596 34.0159 84.772 34 86.2954 34C87.8188 34 89.1995 34.0264 90.4373 34.0793C91.6856 34.1217 92.7965 34.2275 93.7698 34.3967C94.7537 34.566 95.6053 34.8146 96.3247 35.1426C97.0441 35.4705 97.6366 35.9202 98.1021 36.4915C98.5781 37.0522 98.9272 37.7504 99.1494 38.5862C99.3822 39.422 99.4985 40.4323 99.4985 41.6172C99.4985 42.6328 99.4245 43.5585 99.2764 44.3943C99.1283 45.2195 98.8638 45.9389 98.4829 46.5525C98.1021 47.1661 97.5837 47.658 96.9277 48.0283C96.2718 48.3986 95.436 48.6313 94.4204 48.7266L78.1704 50.25C77.3981 50.3241 76.8057 50.4669 76.3931 50.6785C75.9805 50.8901 75.679 51.2286 75.4885 51.6941C75.2981 52.149 75.187 52.752 75.1553 53.5032C75.1341 54.2543 75.1235 55.2012 75.1235 56.3438H98.9907V58.8828H72.0767V55.8359ZM139.999 42.125C139.999 40.8555 139.861 39.8504 139.586 39.1099C139.311 38.3693 138.856 37.8086 138.221 37.4277C137.587 37.0469 136.751 36.8035 135.714 36.6978C134.677 36.592 133.397 36.5391 131.874 36.5391H123.717C122.363 36.5391 121.22 36.5814 120.289 36.666C119.369 36.7401 118.607 36.8988 118.004 37.1421C117.401 37.3854 116.936 37.7345 116.608 38.1895C116.28 38.6444 116.042 39.2474 115.894 39.9985C115.745 40.7497 115.661 41.6754 115.64 42.7756C115.618 43.8653 115.608 45.1719 115.608 46.6953C115.608 48.2188 115.618 49.5306 115.64 50.6309C115.671 51.7205 115.761 52.641 115.909 53.3921C116.058 54.1432 116.29 54.7463 116.608 55.2012C116.936 55.6561 117.401 56.0052 118.004 56.2485C118.607 56.4919 119.369 56.6558 120.289 56.7405C121.22 56.8145 122.363 56.8516 123.717 56.8516H127.48L119.451 59.1162C119.298 59.0928 119.149 59.0679 119.004 59.0415C117.734 58.8193 116.687 58.4808 115.862 58.0259C115.037 57.5604 114.397 56.9785 113.942 56.2803C113.497 55.582 113.169 54.7621 112.958 53.8206C112.757 52.879 112.64 51.8158 112.609 50.6309C112.577 49.446 112.561 48.1341 112.561 46.6953C112.561 45.2565 112.577 43.9447 112.609 42.7598C112.64 41.5749 112.757 40.5116 112.958 39.5701C113.169 38.6285 113.497 37.8086 113.942 37.1104C114.397 36.4121 115.037 35.8355 115.862 35.3806C116.687 34.9151 117.734 34.5713 119.004 34.3491C120.284 34.1164 121.855 34 123.717 34H131.874C133.397 34 134.73 34.0741 135.873 34.2222C137.015 34.3597 137.999 34.5766 138.824 34.8728C139.65 35.1584 140.332 35.5234 140.872 35.9678C141.422 36.4121 141.855 36.9358 142.173 37.5388C142.501 38.1418 142.728 38.8242 142.855 39.5859C142.982 40.3477 143.046 41.194 143.046 42.125H139.999ZM142.977 52.4804C143.023 51.9403 143.046 51.3662 143.046 50.7578V46.6953H127.78V49.2344H139.999V50.7578C139.999 51.6042 139.962 52.3447 139.888 52.9795C139.872 53.1128 139.853 53.2422 139.831 53.3678L142.977 52.4804Z" fill="white"/>
</g>
<defs>
<clipPath id="clip0">
<rect width="180" height="80" fill="white"/>
</clipPath>
</defs>
</svg>
